<?xml version="1.0" encoding="utf-8"?>
<!-- Generator: Adobe Illustrator 24.2.1, SVG Export Plug-In . SVG Version: 6.00 Build 0)  -->
<svg version="1.1" id="Layer_1" xmlns="http://www.w3.org/2000/svg" xmlns:xlink="http://www.w3.org/1999/xlink" x="0px" y="0px"
	 viewBox="0 0 200 200" style="enable-background:new 0 0 200 200;" xml:space="preserve">
<style type="text/css">
	.st0{fill:#FFFFFF;}
</style>
<g>
	<rect width="200" height="200"/>
</g>
<g>
	<path class="st0" d="M48.4,108.4H23.2V42.9h25c6.7,0,12.6,1.3,17.5,3.9c4.9,2.6,8.7,6.4,11.4,11.3c2.7,4.9,4,10.8,4,17.6
		c0,6.8-1.3,12.7-4,17.6c-2.7,4.9-6.4,8.6-11.3,11.3C60.8,107.1,55.1,108.4,48.4,108.4z M41,93.3h6.8c3.2,0,6-0.5,8.3-1.6
		c2.3-1,4-2.8,5.2-5.4c1.2-2.6,1.8-6.1,1.8-10.7c0-4.6-0.6-8.1-1.8-10.7c-1.2-2.6-3-4.4-5.4-5.4c-2.4-1-5.2-1.6-8.7-1.6H41V93.3z"/>
	<path class="st0" d="M105.9,108.4L86.5,42.9h19.8l9,40.3h0.5l10.6-40.3h15.6l10.6,40.4h0.5l9-40.4H182l-19.3,65.5h-17l-11.1-36.6
		H134l-11.1,36.6H105.9z"/>
</g>
<rect x="25.1" y="156.3" class="st0" width="65.9" height="11.9"/>
</svg>
